<?xml version="1.0" encoding="UTF-8" standalone="no"?>
<svg width="409px" height="259px" viewBox="0 0 409 259" version="1.1" xmlns="http://www.w3.org/2000/svg" xmlns:xlink="http://www.w3.org/1999/xlink" xmlns:sketch="http://www.bohemiancoding.com/sketch/ns">
    <!-- Generator: Sketch 3.3.3 (12081) - http://www.bohemiancoding.com/sketch -->
    <title>api</title>
    <desc>Created with Sketch.</desc>
    <defs></defs>
    <g id="Page-1" stroke="none" stroke-width="1" fill="none" fill-rule="evenodd" sketch:type="MSPage">
        <g id="api" sketch:type="MSLayerGroup">
            <g id="Group" sketch:type="MSShapeGroup">
                <path d="M210.789,258.816 C166.14,258.816 121.489,258.919 76.839,258.774 C53.314,258.699 32.133,252.103 17.287,232.747 C0.079,210.31 -4.197,185.018 7.152,158.925 C18.392,133.084 39.679,119.744 67.558,116.968 C76.79,116.048 78.042,115.105 79.15,106.099 C83.605,69.915 120.404,50.384 153.236,66.786 C154.574,67.454 155.917,68.136 157.172,68.945 C160.779,71.275 163.174,70.501 165.077,66.564 C171.22,53.862 179.317,42.541 189.491,32.71 C207.611,15.201 229.579,4.263 254.105,1.577 C322.509,-5.915 375.447,39.561 384.55,99.464 C386.622,113.093 386.249,126.722 383.333,140.179 C382.097,145.881 383.421,149.949 387.812,153.865 C406.955,170.937 413.169,196.512 404.187,219.797 C395.022,243.559 373.351,258.538 347.748,258.574 C302.096,258.639 256.442,258.593 210.789,258.593 L210.789,258.816 L210.789,258.816 Z M185.214,230.327 C188.213,230.327 191.286,230.711 194.173,230.143 C195.38,229.907 196.681,227.765 197.029,226.276 C197.324,225.016 196.365,223.429 195.866,222.021 C185.198,191.933 174.544,161.84 163.827,131.77 C157.798,114.852 157.119,114.731 138.577,116.298 C132.926,116.776 130.458,119.221 128.72,124.196 C122.14,143.03 115.243,161.753 108.491,180.526 C103.201,195.232 98.004,209.971 92.648,224.654 C91.197,228.633 92.458,230.345 96.524,230.362 C100.856,230.379 105.193,230.257 109.518,230.442 C113.728,230.623 115.999,228.652 117.072,224.736 C118.169,220.73 119.535,216.798 120.653,212.798 C121.952,208.148 124.786,205.909 129.74,206.034 C137.066,206.22 144.4,206.13 151.73,206.12 C167.254,206.1 165.188,204.661 169.847,219.233 C173.821,231.656 172.482,230.32 185.214,230.327 L185.214,230.327 Z M199.593,173.194 C199.593,189.844 199.559,206.495 199.611,223.146 C199.63,229.232 200.974,230.443 207.041,230.405 C209.866,230.387 212.691,230.392 215.516,230.407 C221.346,230.437 222.995,228.943 223.053,223.106 C223.14,214.449 223.068,205.79 223.081,197.131 C223.092,190.286 223.494,189.986 230.55,189.846 C238.365,189.691 246.197,189.659 253.985,189.073 C271.555,187.748 281.827,178.778 284.819,162.471 C285.358,159.534 285.723,156.527 285.766,153.546 C286.037,134.401 279.648,119.365 256.741,117.255 C240.388,115.749 223.828,116.265 207.362,116.338 C200.102,116.371 199.637,117.309 199.611,124.739 C199.555,140.892 199.593,157.043 199.593,173.194 L199.593,173.194 Z M317.184,173.474 L317.184,131.01 C317.184,115.743 315.314,114.283 299.813,116.323 C295.887,116.84 294.167,118.574 294.047,122.305 C293.994,123.968 293.928,125.632 293.928,127.296 C293.92,158.603 293.922,189.909 293.924,221.216 C293.924,222.547 293.904,223.882 293.981,225.21 C294.176,228.567 295.829,230.411 299.352,230.377 C303.18,230.341 307.018,230.254 310.838,230.438 C315.542,230.665 317.31,228.689 317.256,223.929 C317.066,207.113 317.183,190.293 317.184,173.474 L317.184,173.474 Z" id="Shape" fill="#000000"></path>
                <path d="M185.214,230.327 C172.482,230.32 173.82,231.656 169.848,219.234 C165.189,204.662 167.255,206.101 151.731,206.121 C144.401,206.131 137.067,206.221 129.741,206.035 C124.787,205.91 121.953,208.148 120.654,212.799 C119.536,216.799 118.17,220.732 117.073,224.737 C116.001,228.653 113.73,230.624 109.519,230.443 C105.194,230.257 100.857,230.38 96.525,230.363 C92.459,230.346 91.198,228.634 92.649,224.655 C98.004,209.972 103.202,195.233 108.492,180.527 C115.244,161.754 122.141,143.031 128.721,124.197 C130.459,119.221 132.927,116.776 138.578,116.299 C157.119,114.732 157.799,114.853 163.828,131.771 C174.544,161.841 185.199,191.934 195.867,222.022 C196.367,223.43 197.325,225.017 197.03,226.277 C196.681,227.766 195.38,229.908 194.174,230.144 C191.287,230.711 188.213,230.327 185.214,230.327 L185.214,230.327 Z M145.353,143.564 C144.123,144.354 143.685,144.471 143.607,144.708 C139.532,157.133 135.408,169.541 131.494,182.016 C130.441,185.373 132.426,187.047 135.693,187.093 C141.48,187.174 147.272,187.228 153.056,187.08 C156.847,186.982 158.436,185.149 157.155,181.189 C154.962,174.416 153,167.568 150.879,160.77 C149.128,155.161 147.289,149.579 145.353,143.564 L145.353,143.564 Z" id="Shape" fill="#FFFFFF"></path>
                <path d="M199.593,173.194 C199.593,157.043 199.554,140.891 199.61,124.74 C199.636,117.309 200.101,116.372 207.361,116.339 C223.827,116.266 240.387,115.75 256.74,117.256 C279.647,119.366 286.037,134.402 285.765,153.547 C285.722,156.527 285.357,159.535 284.818,162.472 C281.826,178.779 271.554,187.748 253.984,189.074 C246.197,189.661 238.365,189.692 230.549,189.847 C223.493,189.988 223.091,190.287 223.08,197.132 C223.066,205.79 223.139,214.449 223.052,223.107 C222.993,228.944 221.345,230.438 215.515,230.408 C212.691,230.393 209.866,230.388 207.04,230.406 C200.973,230.444 199.629,229.233 199.61,223.147 C199.56,206.495 199.593,189.845 199.593,173.194 L199.593,173.194 Z M223.193,154.62 L223.091,154.62 C223.091,158.11 222.72,161.658 223.247,165.067 C223.509,166.757 225.4,169.513 226.589,169.531 C234.86,169.655 243.243,169.89 251.388,168.698 C258.528,167.653 262.986,159.65 262.565,151.371 C262.118,142.583 258.642,137.633 250.619,136.699 C243.578,135.881 236.367,136.303 229.24,136.516 C225.291,136.634 223.368,139.356 223.224,143.154 C223.08,146.971 223.193,150.798 223.193,154.62 L223.193,154.62 Z" id="Shape" fill="#FFFFFF"></path>
                <path d="M317.183,173.474 C317.183,190.293 317.067,207.114 317.256,223.93 C317.31,228.69 315.542,230.665 310.838,230.439 C307.018,230.255 303.18,230.342 299.352,230.378 C295.829,230.412 294.176,228.568 293.981,225.211 C293.905,223.883 293.924,222.548 293.924,221.217 C293.922,189.91 293.92,158.604 293.928,127.297 C293.928,125.633 293.994,123.969 294.047,122.306 C294.166,118.575 295.887,116.84 299.813,116.324 C315.314,114.284 317.184,115.744 317.184,131.011 C317.184,145.165 317.184,159.319 317.183,173.474 L317.183,173.474 Z" id="Shape" fill="#FFFFFF"></path>
                <path d="M145.353,143.564 C147.289,149.579 149.128,155.161 150.879,160.77 C153,167.568 154.962,174.416 157.155,181.189 C158.437,185.149 156.847,186.982 153.056,187.08 C147.272,187.227 141.48,187.174 135.693,187.093 C132.426,187.047 130.441,185.373 131.494,182.016 C135.408,169.541 139.532,157.133 143.607,144.708 C143.685,144.472 144.123,144.354 145.353,143.564 L145.353,143.564 Z" id="Shape" fill="#000000"></path>
                <path d="M223.193,154.62 C223.193,150.798 223.08,146.971 223.224,143.154 C223.368,139.356 225.29,136.634 229.24,136.516 C236.367,136.302 243.578,135.88 250.619,136.699 C258.642,137.633 262.118,142.583 262.565,151.371 C262.986,159.65 258.528,167.653 251.388,168.698 C243.243,169.89 234.861,169.655 226.589,169.531 C225.401,169.513 223.509,166.758 223.247,165.067 C222.72,161.658 223.091,158.11 223.091,154.62 C223.125,154.62 223.159,154.62 223.193,154.62 L223.193,154.62 Z" id="Shape" fill="#000000"></path>
            </g>
        </g>
    </g>
</svg>